<svg width="335" height="185" viewBox="0 0 335 185" fill="none" xmlns="http://www.w3.org/2000/svg">
<path d="M28.1226 74.625C33.9976 75.875 40.6226 75.875 46.9976 73.875L46.8726 73.5C39.9976 75.5 34.6226 75.625 28.7476 74.125C19.7476 71.875 12.7476 64.75 8.74756 56.5C0.372559 39.125 5.37256 10.875 24.2476 5.625C29.2476 4.25 34.6226 5.375 39.8726 9.5C41.6226 10.875 43.2476 13.75 44.2476 15.75H44.7476L43.4976 9C43.4976 9 37.8726 3.5 26.7476 4.25C8.74756 5.5 0.372559 21 0.372559 39.375C0.372559 57.75 10.9976 71 28.1226 74.625ZM81.3774 56.625C77.8774 45.5 66.7524 16.875 66.7524 16.875H62.6274C62.6274 16.875 56.5024 32.125 51.6274 45L51.3774 45.875C49.8774 49.875 48.6274 53.75 47.6274 56.75C46.7524 59.25 45.6274 60.875 44.5024 60.875V61.125H49.3774V60.875C48.6274 60.875 48.2524 60.125 48.2524 59C48.2524 58.375 48.3774 57.625 48.6274 56.75C49.5024 54 50.8774 50 52.5024 45.625C53.2524 45.5 54.3774 45.25 55.7524 45.25C60.7524 45.25 63.5024 46.625 66.2524 48C68.7524 49.25 71.2524 50.5 75.2524 50.75C76.2524 53.25 77.0024 55.5 77.5024 57.25C78.2524 59.75 77.5024 60.875 76.3774 60.875V61.125H84.5024V60.875C83.3774 60.875 82.0024 58.625 81.3774 56.625ZM66.8774 47.25C64.0024 45.875 61.0024 44.375 55.7524 44.375C54.6274 44.375 53.6274 44.5 52.8774 44.75C57.3774 32.75 63.1274 18.5 63.1274 18.5C63.1274 18.5 70.5024 37.375 75.0024 49.875C71.5024 49.625 69.2524 48.5 66.8774 47.25ZM111.782 17.375L137.032 6.875C145.032 3.5 151.657 4.25 156.907 6.25C161.032 7.75 165.282 10.875 168.157 14L168.282 13.875C165.032 10.375 161.032 7.375 156.782 5.75C149.407 2.875 143.032 1.375 132.907 5.5C119.657 10.875 123.907 9.25 107.657 15.875C99.4067 19.375 93.2817 19.625 88.4067 17L88.2817 17.375C95.0317 21.5 101.657 21.5 111.782 17.375ZM91.7817 67.5H101.282V67.25C99.7817 67.25 98.5317 64.875 98.5317 62.875V39.75H109.532C112.782 39.75 114.907 41.125 114.907 42.375V42.5H115.407V36.125H114.907C114.907 37.375 112.782 38.75 109.532 38.75H98.5317V21C97.1567 21 95.7817 20.875 94.4067 20.5C94.5317 21.125 94.5317 21.875 94.5317 22.625V61.75C94.5317 63.625 94.2817 65 93.6567 66C93.1567 66.75 92.5317 67.25 91.7817 67.25V67.5ZM124.527 61.125H134.152V61C132.527 60.875 131.277 58.5 131.277 56.5V39.625H142.277C145.527 39.625 147.652 41.125 147.652 42.375V42.5H148.152V36.125H147.652C147.652 37.25 145.527 38.75 142.277 38.75H131.277V17.75H135.027C143.527 17.75 151.527 17.25 153.402 21.5H154.027L153.027 16.875H124.527V17.125C126.152 17.125 127.402 19.25 127.402 22.625V55.375C127.402 57.25 127.027 58.625 126.402 59.625C125.902 60.375 125.277 60.875 124.527 60.875V61.125ZM155.313 61.125H186.188L187.063 56.625H186.563C184.063 60.75 176.563 60.25 167.438 60.25H162.063V39.625H174.188C177.438 39.625 179.563 41.125 179.563 42.375V42.5H180.063V36.125H179.563C179.563 37.25 177.438 38.75 174.188 38.75H162.063V17.75H166.813C175.438 17.75 183.313 17.25 185.313 21.5H185.938L184.938 16.875H155.313V17.125C156.813 17.125 158.063 19.25 158.063 22.625V55.375C158.063 58.875 156.813 60.875 155.313 60.875V61.125ZM228.931 67.5C253.306 67.5 263.931 46.25 263.931 34.125C263.931 14.375 249.306 0.750003 228.681 0.750003C224.556 0.750003 220.556 1.25 217.806 2.25C211.681 4.5 206.681 9 203.681 15C200.806 20.75 200.306 27.75 202.431 34.125C204.556 40.625 208.806 45.75 214.556 48.5L214.681 48.25C208.931 45.5 204.681 40.375 202.681 34C200.681 27.75 201.181 20.875 203.931 15.125C206.806 9.125 211.806 4.75 217.931 2.625C220.806 1.625 224.681 1.25 228.681 1.25C245.181 1.25 259.181 13.75 259.181 33.875C259.181 52.625 247.556 67.25 229.181 66.875L223.306 66.75V20.75C223.306 18.875 224.556 16.5 226.056 16.5V16.25H216.556V16.5C217.181 16.5 217.806 17 218.306 17.75C218.931 18.75 219.306 20.125 219.306 22V61.75C219.306 63.5 218.931 64.875 218.431 65.75C217.931 66.75 217.306 67.25 216.556 67.25V67.5H228.931ZM267.286 61.125H298.161L299.036 56.625H298.536C296.036 60.75 288.536 60.25 279.411 60.25H274.036V39.625H286.161C289.411 39.625 291.536 41.125 291.536 42.375V42.5H292.036V36.125H291.536C291.536 37.25 289.411 38.75 286.161 38.75H274.036V17.75H278.786C287.411 17.75 295.286 17.25 297.286 21.5H297.911L296.911 16.875H267.286V17.125C268.786 17.125 270.036 19.25 270.036 22.625V55.375C270.036 58.875 268.786 60.875 267.286 60.875V61.125ZM302.769 61.125H333.644L334.519 56.625H334.019C331.519 60.75 324.019 60.25 314.894 60.25H309.519V21.5C309.519 19.5 310.769 17.125 312.269 17.125V16.875H302.769V17.125C304.019 17.125 304.769 18.5 305.144 19.625C305.394 20.5 305.519 21.625 305.519 22.625V52.75C305.519 55 305.769 57.625 304.644 59.625C304.144 60.375 303.519 60.875 302.769 60.875V61.125ZM71.145 184.75C84.77 184.75 99.77 173.875 99.77 156.625C99.77 140.25 89.27 131.25 78.27 131.25C78.27 131.125 88.02 129.75 88.02 121.125C88.02 115.25 83.27 112.5 79.27 111.625C76.895 111.125 70.895 110.875 66.52 110.875H59.645V111.125C60.52 111.125 61.145 111.625 61.645 112.5C62.145 113.5 62.52 114.875 62.52 116.625V135.25C58.77 136.5 55.27 138.75 52.27 141.75C47.645 146.5 45.02 153 45.02 159.5C45.02 166.125 47.52 172.375 52.02 177.125C56.895 182.125 63.52 184.75 71.145 184.75ZM66.52 131V111.75C67.27 111.75 76.145 111.625 79.02 112.875C82.27 114.125 84.02 116.625 84.02 121.125C84.02 125.5 81.77 128.125 78.645 129.625C76.27 130.625 73.02 130.875 70.645 131H66.52ZM71.145 184.5C63.52 184.5 57.02 181.875 52.145 176.875C47.77 172.25 45.27 166.125 45.27 159.5C45.27 153.125 47.895 146.625 52.52 142C55.395 139 58.77 136.875 62.52 135.625V149.375C62.52 151.25 62.145 152.625 61.52 153.625C61.02 154.375 60.395 154.875 59.645 154.875V155.125H69.27V154.875C67.77 154.875 66.52 152.5 66.52 150.625V134.75C67.52 134.5 68.52 134.5 69.645 134.5V134.25C68.52 134.25 67.52 134.25 66.52 134.375V132H71.77C83.27 132 95.77 138.5 95.77 156.5C95.77 167.875 89.77 184.5 71.145 184.5ZM124.391 161.125C136.641 161.125 146.516 151.25 146.516 139C146.516 126.75 136.641 116.875 124.391 116.875C112.141 116.875 102.266 126.75 102.266 139C102.266 151.25 112.141 161.125 124.391 161.125ZM124.391 160.25C114.516 160.25 106.391 150.75 106.391 139C106.391 127.25 114.516 117.75 124.391 117.75C134.266 117.75 142.391 127.25 142.391 139C142.391 150.75 134.266 160.25 124.391 160.25ZM186.235 160.625C183.735 160.75 182.61 159.125 180.235 156.625L172.985 148.75C171.36 147 169.735 146 168.11 145.375C168.36 145.375 168.61 145.25 168.86 145.25L170.235 145.125C175.735 144 181.985 140 181.985 130.625C181.985 119.875 171.485 116.875 159.735 116.875H150.235V117.125C151.485 117.125 152.235 118.5 152.61 119.625C152.985 120.5 152.985 121.625 152.985 122.625V155.375C152.985 157.25 152.61 158.625 152.11 159.625C151.61 160.375 150.985 160.875 150.235 160.875V161.125H159.735V160.875H159.485C159.11 160.75 158.735 160.5 158.36 160.125C157.485 159.375 156.985 157.75 156.985 156.5V145.75C158.61 145.75 160.61 145.75 162.61 145.625C164.61 145.875 166.36 147.125 168.36 149.25L175.735 157.125C178.61 160.25 181.485 161.25 184.985 161C185.985 160.875 186.235 161 187.485 160.625V160.375C187.11 160.5 186.86 160.5 186.235 160.625ZM156.985 144.875V117.75H161.11C163.485 117.75 166.485 118 168.36 118.5C173.61 119.625 177.985 123.375 177.985 130.75C177.985 137.5 175.985 142 169.61 143.875L167.985 144.25C166.485 144.625 164.735 144.75 163.11 144.875C159.735 145 156.985 144.875 156.985 144.875ZM229.621 137.875C225.746 140.625 223.121 144.625 222.996 151V156.5C221.371 157.875 219.746 159.125 217.746 159.75C214.996 160.5 211.121 160.625 208.246 160.25C201.246 159.25 195.746 153.625 193.371 147.125C190.996 141 190.621 133.625 192.246 127.375C193.246 123.625 195.496 118.75 198.246 116C201.121 113.25 204.746 111.25 208.621 110.875C213.371 110.25 218.246 111.25 222.121 114.25C223.746 115.375 225.496 118.25 226.371 120.125H226.996L225.746 114.125C225.746 114.125 220.871 110.125 210.871 110.125C197.246 110.125 187.496 122.125 187.496 135.25C187.496 143.125 189.246 148 191.871 151.625C194.371 155.25 197.996 158.125 202.121 159.625C207.371 161.625 213.621 161.5 218.996 160.125C220.246 159.75 221.621 159.375 222.996 158.75L222.871 167.25C222.871 174.875 218.996 181.875 213.246 181.875V182.125C219.621 182.125 226.871 172.875 226.871 165.5L227.121 149.25C227.121 143.75 227.121 140.25 229.871 138.25C231.746 136.875 233.621 136 235.996 136V135.75C233.496 135.75 230.996 136.875 229.621 137.875ZM258.136 161.125C270.386 161.125 280.261 151.25 280.261 139C280.261 126.75 270.386 116.875 258.136 116.875C245.886 116.875 236.011 126.75 236.011 139C236.011 151.25 245.886 161.125 258.136 161.125ZM258.136 160.25C248.261 160.25 240.136 150.75 240.136 139C240.136 127.25 248.261 117.75 258.136 117.75C268.011 117.75 276.136 127.25 276.136 139C276.136 150.75 268.011 160.25 258.136 160.25Z" fill="#F5F5F5"/>
<path d="M28.1226 74.625L28.2266 74.1359L28.2261 74.1358L28.1226 74.625ZM46.9976 73.875L47.1472 74.3521L47.6328 74.1997L47.4719 73.7169L46.9976 73.875ZM46.8726 73.5L47.3469 73.3419L47.1948 72.8855L46.7329 73.0199L46.8726 73.5ZM28.7476 74.125L28.8713 73.6405L28.8688 73.6399L28.7476 74.125ZM8.74756 56.5L8.29715 56.7171L8.29765 56.7181L8.74756 56.5ZM24.2476 5.625L24.115 5.14289L24.1136 5.14329L24.2476 5.625ZM39.8726 9.5L40.1815 9.10684L39.8726 9.5ZM44.2476 15.75L43.8003 15.9736L43.9385 16.25H44.2476V15.75ZM44.7476 15.75V16.25H45.3487L45.2392 15.659L44.7476 15.75ZM43.4976 9L43.9892 8.90895L43.9604 8.75322L43.8471 8.64249L43.4976 9ZM26.7476 4.25L26.7139 3.75113L26.7129 3.7512L26.7476 4.25ZM28.0185 75.1141C33.9653 76.3793 40.6788 76.3814 47.1472 74.3521L46.8479 73.3979C40.5663 75.3686 34.0298 75.3707 28.2266 74.1359L28.0185 75.1141ZM47.4719 73.7169L47.3469 73.3419L46.3982 73.6581L46.5232 74.0331L47.4719 73.7169ZM46.7329 73.0199C39.9332 74.998 34.6497 75.1159 28.8713 73.6405L28.6239 74.6095C34.5955 76.1341 40.0619 76.002 47.0122 73.9801L46.7329 73.0199ZM28.8688 73.6399C20.0524 71.4358 13.1533 64.4407 9.19747 56.2819L8.29765 56.7181C12.3419 65.0593 19.4427 72.3142 28.6263 74.6101L28.8688 73.6399ZM9.19797 56.2829C5.06725 47.7132 4.22673 36.4298 6.76283 26.641C9.29949 16.8501 15.1779 8.66665 24.3815 6.10671L24.1136 5.14329C14.4422 7.83334 8.38313 16.3999 5.79479 26.3902C3.20589 36.3827 4.05287 47.9118 8.29715 56.7171L9.19797 56.2829ZM24.3801 6.1071C29.2029 4.78084 34.4171 5.84948 39.5636 9.89316L40.1815 9.10684C34.828 4.90051 29.2922 3.71916 24.115 5.1429L24.3801 6.1071ZM39.5636 9.89316C40.3753 10.5309 41.1838 11.5403 41.9235 12.6653C42.6587 13.7833 43.3051 14.983 43.8003 15.9736L44.6948 15.5264C44.1901 14.517 43.524 13.2792 42.7591 12.1159C41.9988 10.9597 41.1198 9.84411 40.1815 9.10684L39.5636 9.89316ZM44.2476 16.25H44.7476V15.25H44.2476V16.25ZM45.2392 15.659L43.9892 8.90895L43.0059 9.09104L44.2559 15.841L45.2392 15.659ZM43.4976 9C43.8471 8.64249 43.8469 8.64229 43.8467 8.64207C43.8466 8.64197 43.8463 8.64172 43.8461 8.64152C43.8457 8.64111 43.8452 8.64062 43.8446 8.64005C43.8434 8.6389 43.8419 8.63742 43.84 8.63561C43.8363 8.632 43.8311 8.62709 43.8246 8.62092C43.8115 8.60858 43.7929 8.59122 43.7688 8.56919C43.7206 8.52512 43.6502 8.46239 43.5576 8.38386C43.3725 8.22683 43.0988 8.00659 42.7366 7.74632C42.0124 7.22582 40.9338 6.54477 39.5027 5.88918C36.6381 4.57692 32.3678 3.36997 26.7139 3.75113L26.7812 4.74887C32.2523 4.38003 36.357 5.54807 39.0862 6.79832C40.452 7.42398 41.4749 8.07104 42.153 8.55836C42.492 8.802 42.7447 9.00558 42.9107 9.1464C42.9936 9.21681 43.0549 9.2715 43.0945 9.30764C43.1143 9.32571 43.1287 9.33913 43.1376 9.34756C43.142 9.35178 43.1451 9.35474 43.1469 9.35641C43.1477 9.35725 43.1483 9.35776 43.1485 9.35794C43.1485 9.35804 43.1486 9.35804 43.1485 9.35797C43.1484 9.35793 43.1483 9.35782 43.1483 9.3578C43.1482 9.35766 43.148 9.3575 43.4976 9ZM26.7129 3.7512C17.5573 4.387 10.826 8.65657 6.39783 15.1077C1.98086 21.5424 -0.127441 30.1191 -0.127441 39.375H0.872559C0.872559 30.2559 2.95175 21.895 7.22229 15.6736C11.4816 9.46842 17.9378 5.36299 26.7822 4.7488L26.7129 3.7512ZM-0.127441 39.375C-0.127441 48.6606 2.5583 56.6799 7.43358 62.8415C12.3094 69.0038 19.3533 73.2798 28.019 75.1142L28.2261 74.1358C19.7668 72.3452 12.9357 68.1837 8.21779 62.221C3.49932 56.2576 0.872559 48.4644 0.872559 39.375H-0.127441ZM81.3774 56.625L81.8547 56.4759L81.8544 56.4749L81.3774 56.625ZM66.7524 16.875L67.2185 16.6939L67.0946 16.375H66.7524V16.875ZM62.6274 16.875V16.375H62.2894L62.1635 16.6886L62.6274 16.875ZM51.6274 45L51.1598 44.8229L51.1524 44.8425L51.1467 44.8626L51.6274 45ZM51.3774 45.875L51.8456 46.0506L51.8527 46.0317L51.8582 46.0124L51.3774 45.875ZM47.6274 56.75L48.0994 56.9152L48.1018 56.9081L47.6274 56.75ZM44.5024 60.875V60.375H44.0024V60.875H44.5024ZM44.5024 61.125H44.0024V61.625H44.5024V61.125ZM49.3774 61.125V61.625H49.8774V61.125H49.3774ZM49.3774 60.875H49.8774V60.375H49.3774V60.875ZM48.6274 56.75L48.151 56.5984L48.1487 56.6055L48.1467 56.6126L48.6274 56.75ZM52.5024 45.625L52.4202 45.1318L52.1346 45.1794L52.0337 45.4509L52.5024 45.625ZM66.2524 48L66.4761 47.5528L66.2524 48ZM75.2524 50.75L75.7167 50.5643L75.5992 50.2707L75.2836 50.251L75.2524 50.75ZM77.5024 57.25L77.0216 57.3874L77.0235 57.3937L77.5024 57.25ZM76.3774 60.875V60.375H75.8774V60.875H76.3774ZM76.3774 61.125H75.8774V61.625H76.3774V61.125ZM84.5024 61.125V61.625H85.0024V61.125H84.5024ZM84.5024 60.875H85.0024V60.375H84.5024V60.875ZM66.8774 47.25L67.1103 46.8075L67.1018 46.8031L67.0932 46.7989L66.8774 47.25ZM52.8774 44.75L52.4093 44.5744L52.0413 45.5558L53.0356 45.2243L52.8774 44.75ZM63.1274 18.5L63.5932 18.318L63.1349 17.1453L62.6638 18.3129L63.1274 18.5ZM75.0024 49.875L74.9668 50.3737L75.7331 50.4285L75.4729 49.7056L75.0024 49.875ZM81.8544 56.4749C80.0995 50.8969 76.4381 40.9462 73.2204 32.4019C71.6105 28.1272 70.1101 24.2003 69.0122 21.3422C68.4632 19.9131 68.0148 18.7511 67.7037 17.9464C67.5481 17.544 67.4268 17.231 67.3444 17.0184C67.3032 16.9122 67.2718 16.8311 67.2506 16.7765C67.24 16.7492 67.232 16.7286 67.2266 16.7148C67.2239 16.7078 67.2219 16.7026 67.2205 16.6991C67.2198 16.6974 67.2193 16.6961 67.219 16.6952C67.2188 16.6948 67.2187 16.6944 67.2186 16.6942C67.2185 16.694 67.2185 16.6939 66.7524 16.875C66.2864 17.0561 66.2864 17.0562 66.2865 17.0564C66.2866 17.0567 66.2867 17.057 66.2869 17.0574C66.2872 17.0583 66.2877 17.0596 66.2884 17.0613C66.2898 17.0648 66.2918 17.0699 66.2944 17.0768C66.2998 17.0906 66.3078 17.1112 66.3184 17.1384C66.3395 17.1928 66.3709 17.2738 66.412 17.3799C66.4943 17.5922 66.6155 17.905 66.771 18.307C67.0819 19.1112 67.53 20.2724 68.0787 21.7008C69.176 24.5575 70.6756 28.4822 72.2845 32.7543C75.5042 41.3038 79.1554 51.2281 80.9005 56.7751L81.8544 56.4749ZM66.7524 16.375H62.6274V17.375H66.7524V16.375ZM62.6274 16.875C62.1635 16.6886 62.1634 16.6887 62.1634 16.6888C62.1633 16.6889 62.1633 16.6891 62.1632 16.6894C62.163 16.6898 62.1627 16.6905 62.1623 16.6915C62.1616 16.6933 62.1605 16.6961 62.159 16.6998C62.156 16.7072 62.1516 16.7183 62.1457 16.7329C62.1339 16.7622 62.1164 16.8058 62.0934 16.8633C62.0473 16.9782 61.9791 17.1484 61.8905 17.3696C61.7135 17.8119 61.4551 18.4581 61.1298 19.2738C60.4792 20.9051 59.5611 23.2142 58.4905 25.9258C56.3495 31.3485 53.5985 38.3823 51.1598 44.8229L52.095 45.1771C54.5313 38.7427 57.2804 31.714 59.4206 26.293C60.4907 23.5827 61.4084 21.2746 62.0587 19.6442C62.3838 18.829 62.642 18.1832 62.8189 17.7412C62.9074 17.5203 62.9755 17.3503 63.0215 17.2355C63.0445 17.1781 63.062 17.1346 63.0737 17.1054C63.0796 17.0908 63.084 17.0798 63.087 17.0724C63.0885 17.0687 63.0896 17.0659 63.0903 17.0641C63.0907 17.0632 63.091 17.0625 63.0911 17.062C63.0912 17.0618 63.0913 17.0616 63.0913 17.0615C63.0914 17.0614 63.0914 17.0613 62.6274 16.875ZM51.1467 44.8626L50.8967 45.7376L51.8582 46.0124L52.1082 45.1374L51.1467 44.8626ZM50.9093 45.6994C49.4051 49.7106 48.1512 53.5976 47.1531 56.5919L48.1018 56.9081C49.1037 53.9024 50.3498 50.0394 51.8456 46.0506L50.9093 45.6994ZM47.1555 56.5848C46.7266 57.8103 46.2465 58.7899 45.7566 59.4528C45.2508 60.1371 44.8183 60.375 44.5024 60.375V61.375C45.3116 61.375 46.0041 60.8004 46.5608 60.0472C47.1333 59.2726 47.6533 58.1897 48.0994 56.9152L47.1555 56.5848ZM44.0024 60.875V61.125H45.0024V60.875H44.0024ZM44.5024 61.625H49.3774V60.625H44.5024V61.625ZM49.8774 61.125V60.875H48.8774V61.125H49.8774ZM49.3774 60.375C49.2064 60.375 49.0792 60.3062 48.9678 60.1113C48.841 59.8893 48.7524 59.5192 48.7524 59H47.7524C47.7524 59.6058 47.8514 60.1732 48.0996 60.6074C48.3632 61.0688 48.7985 61.375 49.3774 61.375V60.375ZM48.7524 59C48.7524 58.4373 48.8657 57.7361 49.1082 56.8874L48.1467 56.6126C47.8892 57.5139 47.7524 58.3127 47.7524 59H48.7524ZM49.1039 56.9016C49.9761 54.1605 51.3484 50.1681 52.9712 45.7991L52.0337 45.4509C50.4065 49.8319 49.0288 53.8395 48.151 56.5984L49.1039 56.9016ZM52.5846 46.1182C53.3606 45.9889 54.4304 45.75 55.7524 45.75V44.75C54.3245 44.75 53.1443 45.0111 52.4202 45.1318L52.5846 46.1182ZM55.7524 45.75C60.634 45.75 63.2991 47.0823 66.0288 48.4472L66.4761 47.5528C63.7058 46.1677 60.8709 44.75 55.7524 44.75V45.75ZM66.0288 48.4472C68.5376 49.7016 71.1142 50.9923 75.2213 51.249L75.2836 50.251C71.3907 50.0077 68.9673 48.7984 66.4761 47.5528L66.0288 48.4472ZM74.7882 50.9357C75.7821 53.4204 76.5265 55.6543 77.0217 57.3874L77.9832 57.1126C77.4784 55.3457 76.7228 53.0796 75.7167 50.5643L74.7882 50.9357ZM77.0235 57.3937C77.3845 58.5969 77.3527 59.3738 77.178 59.8164C77.0218 60.2122 76.7423 60.375 76.3774 60.375V61.375C77.1376 61.375 77.7956 60.9753 78.1081 60.1836C78.4022 59.4387 78.3704 58.4031 77.9814 57.1063L77.0235 57.3937ZM75.8774 60.875V61.125H76.8774V60.875H75.8774ZM76.3774 61.625H84.5024V60.625H76.3774V61.625ZM85.0024 61.125V60.875H84.0024V61.125H85.0024ZM84.5024 60.375C84.3854 60.375 84.1985 60.3128 83.9435 60.1048C83.6953 59.9022 83.4289 59.5988 83.1635 59.2154C82.6334 58.4497 82.1541 57.4341 81.8547 56.4759L80.9002 56.7741C81.2257 57.8159 81.7464 58.9253 82.3413 59.7846C82.6384 60.2137 82.9659 60.5978 83.3114 60.8796C83.6501 61.156 84.057 61.375 84.5024 61.375V60.375ZM67.0932 46.7989C64.2066 45.4184 61.1209 43.875 55.7524 43.875V44.875C60.884 44.875 63.7983 46.3316 66.6617 47.7011L67.0932 46.7989ZM55.7524 43.875C54.5979 43.875 53.5391 44.0024 52.7193 44.2757L53.0356 45.2243C53.7158 44.9976 54.657 44.875 55.7524 44.875V43.875ZM53.3456 44.9256C55.5941 38.9295 58.1554 32.3701 60.155 27.3087C61.1547 24.7782 62.0138 22.6227 62.6229 21.0998C62.9275 20.3383 63.1696 19.7351 63.3355 19.3222C63.4185 19.1158 63.4824 18.9569 63.5256 18.8498C63.5471 18.7962 63.5636 18.7555 63.5745 18.7282C63.58 18.7146 63.5842 18.7043 63.587 18.6974C63.5883 18.694 63.5894 18.6914 63.5901 18.6897C63.5904 18.6888 63.5907 18.6882 63.5909 18.6877C63.591 18.6875 63.591 18.6874 63.5911 18.6873C63.5911 18.6871 63.5911 18.6871 63.1274 18.5C62.6638 18.3129 62.6637 18.313 62.6637 18.3131C62.6637 18.3132 62.6636 18.3134 62.6635 18.3136C62.6633 18.314 62.6631 18.3147 62.6627 18.3155C62.662 18.3173 62.6609 18.3199 62.6596 18.3234C62.6568 18.3303 62.6526 18.3406 62.6471 18.3543C62.636 18.3817 62.6196 18.4225 62.598 18.4762C62.5547 18.5836 62.4907 18.7426 62.4076 18.9493C62.2415 19.3626 61.9993 19.9664 61.6945 20.7284C61.0849 22.2523 60.2252 24.4093 59.2249 26.9413C57.2245 32.0049 54.6608 38.5705 52.4093 44.5744L53.3456 44.9256ZM63.1274 18.5C62.6617 18.682 62.6618 18.682 62.6618 18.6822C62.6619 18.6823 62.6619 18.6825 62.6621 18.6828C62.6623 18.6834 62.6626 18.6842 62.6631 18.6854C62.664 18.6877 62.6653 18.6911 62.6671 18.6956C62.6706 18.7047 62.6759 18.7183 62.683 18.7364C62.697 18.7724 62.718 18.8261 62.7455 18.8967C62.8006 19.0379 62.882 19.2467 62.9872 19.5169C63.1976 20.0572 63.5031 20.8431 63.8839 21.8253C64.6454 23.7896 65.7077 26.539 66.9105 29.6789C69.3165 35.9595 72.2838 43.7993 74.532 50.0444L75.4729 49.7056C73.2211 43.4507 70.2509 35.603 67.8444 29.3211C66.6409 26.1798 65.5782 23.4291 64.8163 21.4638C64.4353 20.4811 64.1296 19.6948 63.9191 19.154C63.8138 18.8837 63.7323 18.6747 63.6772 18.5333C63.6496 18.4626 63.6286 18.4088 63.6145 18.3727C63.6074 18.3546 63.6021 18.341 63.5985 18.3318C63.5968 18.3273 63.5954 18.3238 63.5945 18.3215C63.5941 18.3204 63.5937 18.3195 63.5935 18.3189C63.5934 18.3186 63.5933 18.3184 63.5932 18.3183C63.5932 18.3181 63.5932 18.318 63.1274 18.5ZM75.0381 49.3763C71.6461 49.134 69.4725 48.0508 67.1103 46.8075L66.6446 47.6925C69.0324 48.9492 71.3588 50.116 74.9668 50.3737L75.0381 49.3763ZM111.782 17.375L111.97 17.8381L111.974 17.8367L111.782 17.375ZM137.032 6.875L137.224 7.33668L137.226 7.33569L137.032 6.875ZM156.907 6.25L156.729 6.7173L156.736 6.7199L156.907 6.25ZM168.157 14L167.789 14.3385L168.142 14.7221L168.51 14.3536L168.157 14ZM168.282 13.875L168.635 14.2286L168.976 13.8879L168.648 13.5348L168.282 13.875ZM156.782 5.75L156.6 6.21586L156.603 6.21703L156.782 5.75ZM132.907 5.5L133.095 5.96333L133.095 5.96305L132.907 5.5ZM107.657 15.875L107.468 15.412L107.461 15.4147L107.657 15.875ZM88.4067 17L88.6438 16.5598L88.1204 16.2779L87.9324 16.8419L88.4067 17ZM88.2817 17.375L87.8074 17.2169L87.6816 17.5942L88.021 17.8016L88.2817 17.375ZM91.7817 67.5H91.2817V68H91.7817V67.5ZM101.282 67.5V68H101.782V67.5H101.282ZM101.282 67.25H101.782V66.75H101.282V67.25ZM98.5317 39.75V39.25H98.0317V39.75H98.5317ZM114.907 42.5H114.407V43H114.907V42.5ZM115.407 42.5V43H115.907V42.5H115.407ZM115.407 36.125H115.907V35.625H115.407V36.125ZM114.907 36.125V35.625H114.407V36.125H114.907ZM98.5317 38.75H98.0317V39.25H98.5317V38.75ZM98.5317 21H99.0317V20.5H98.5317V21ZM94.4067 20.5L94.5383 20.0176L93.7578 19.8048L93.9165 20.5981L94.4067 20.5ZM93.6567 66L94.0728 66.2774L94.0768 66.2712L94.0807 66.265L93.6567 66ZM91.7817 67.25V66.75H91.2817V67.25H91.7817ZM111.974 17.8367L137.224 7.33668L136.84 6.41333L111.59 16.9133L111.974 17.8367ZM137.226 7.33569C145.093 4.01679 151.584 4.75721 156.729 6.71725L157.085 5.78276C151.73 3.74279 144.97 2.9832 136.837 6.41432L137.226 7.33569ZM156.736 6.7199C160.771 8.18719 164.956 11.2598 167.789 14.3385L168.525 13.6615C165.607 10.4902 161.293 7.3128 157.078 5.7801L156.736 6.7199ZM168.51 14.3536L168.635 14.2286L167.928 13.5214L167.803 13.6464L168.51 14.3536ZM168.648 13.5348C165.36 9.99399 161.299 6.94189 156.96 5.28297L156.603 6.21703C160.764 7.8081 164.703 10.756 167.915 14.2152L168.648 13.5348ZM156.963 5.28415C153.261 3.84085 149.765 2.72417 145.904 2.50083C142.037 2.2771 137.838 2.95121 132.718 5.03695L133.095 5.96305C138.101 3.92378 142.151 3.28539 145.847 3.49916C149.549 3.71332 152.927 4.78414 156.6 6.21585L156.963 5.28415ZM132.719 5.03667C119.489 10.4034 123.687 8.79957 107.468 15.412L107.845 16.338C124.126 9.70042 119.824 11.3466 133.095 5.96333L132.719 5.03667ZM107.461 15.4147C99.2757 18.8875 93.3267 19.0813 88.6438 16.5598L88.1697 17.4402C93.2368 20.1687 99.5378 19.8625 107.852 16.3353L107.461 15.4147ZM87.9324 16.8419L87.8074 17.2169L88.7561 17.5331L88.8811 17.1581L87.9324 16.8419ZM88.021 17.8016C91.465 19.9063 94.898 20.9688 98.7661 20.9688C102.622 20.9688 106.877 19.9131 111.97 17.838L111.593 16.912C106.561 18.9619 102.442 19.9688 98.7661 19.9688C95.103 19.9688 91.8484 18.9687 88.5425 16.9484L88.021 17.8016ZM91.7817 68H101.282V67H91.7817V68ZM101.782 67.5V67.25H100.782V67.5H101.782ZM101.282 66.75C100.803 66.75 100.246 66.3534 99.7744 65.5576C99.3185 64.7882 99.0317 63.7821 99.0317 62.875H98.0317C98.0317 63.9679 98.37 65.1493 98.9141 66.0674C99.4425 66.9591 100.261 67.75 101.282 67.75V66.75ZM99.0317 62.875V39.75H98.0317V62.875H99.0317ZM98.5317 40.25H109.532V39.25H98.5317V40.25ZM109.532 40.25C111.091 40.25 112.351 40.5805 113.203 41.0349C114.09 41.5081 114.407 42.0344 114.407 42.375H115.407C115.407 41.4656 114.661 40.6794 113.673 40.1526C112.65 39.607 111.223 39.25 109.532 39.25V40.25ZM114.407 42.375V42.5H115.407V42.375H114.407ZM114.907 43H115.407V42H114.907V43ZM115.907 42.5V36.125H114.907V42.5H115.907ZM115.407 35.625H114.907V36.625H115.407V35.625ZM114.407 36.125C114.407 36.4656 114.09 36.9919 113.203 37.4651C112.351 37.9195 111.091 38.25 109.532 38.25V39.25C111.223 39.25 112.65 38.893 113.673 38.3474C114.661 37.8206 115.407 37.0344 115.407 36.125H114.407ZM109.532 38.25H98.5317V39.25H109.532V38.25ZM99.0317 38.75V21H98.0317V38.75H99.0317ZM98.5317 20.5C97.1867 20.5 95.8584 20.3777 94.5383 20.0176L94.2752 20.9824C95.705 21.3723 97.1267 21.5 98.5317 21.5V20.5ZM93.9165 20.5981C94.0298 21.1646 94.0317 21.8606 94.0317 22.625H95.0317C95.0317 21.8894 95.0337 21.0854 94.897 20.4019L93.9165 20.5981ZM94.0317 22.625V61.75H95.0317V22.625H94.0317ZM94.0317 61.75C94.0317 63.5961 93.7823 64.8557 93.2327 65.735L94.0807 66.265C94.7812 65.1443 95.0317 63.6539 95.0317 61.75H94.0317ZM93.2407 65.7226C92.7779 66.4168 92.2846 66.75 91.7817 66.75V67.75C92.7789 67.75 93.5355 67.0832 94.0728 66.2774L93.2407 65.7226ZM91.2817 67.25V67.5H92.2817V67.25H91.2817ZM124.527 61.125H124.027V61.625H124.527V61.125ZM134.152 61.125V61.625H134.652V61.125H134.152ZM134.152 61H134.652V60.537L134.19 60.5015L134.152 61ZM131.277 39.625V39.125H130.777V39.625H131.277ZM147.652 42.5H147.152V43H147.652V42.5ZM148.152 42.5V43H148.652V42.5H148.152ZM148.152 36.125H148.652V35.625H148.152V36.125ZM147.652 36.125V35.625H147.152V36.125H147.652ZM131.277 38.75H130.777V39.25H131.277V38.75ZM131.277 17.75V17.25H130.777V17.75H131.277ZM153.402 21.5L152.944 21.7018L153.076 22H153.402V21.5ZM154.027 21.5V22H154.647L154.516 21.3943L154.027 21.5ZM153.027 16.875L153.516 16.7693L153.43 16.375H153.027V16.875ZM124.527 16.875V16.375H124.027V16.875H124.527ZM124.527 17.125H124.027V17.625H124.527V17.125ZM126.402 59.625L126.818 59.9024L126.822 59.8962L126.826 59.89L126.402 59.625ZM124.527 60.875V60.375H124.027V60.875H124.527ZM124.527 61.625H134.152V60.625H124.527V61.625ZM134.652 61.125V61H133.652V61.125H134.652ZM134.19 60.5015C133.614 60.4571 133.014 59.9962 132.534 59.1959C132.063 58.4115 131.777 57.4063 131.777 56.5H130.777C130.777 57.5937 131.116 58.776 131.676 59.7104C132.227 60.6288 133.065 61.4179 134.114 61.4985L134.19 60.5015ZM131.777 56.5V39.625H130.777V56.5H131.777ZM131.277 40.125H142.277V39.125H131.277V40.125ZM142.277 40.125C143.829 40.125 145.085 40.4836 145.937 40.9663C146.823 41.4687 147.152 42.0254 147.152 42.375H148.152C148.152 41.4746 147.418 40.6563 146.43 40.0962C145.406 39.5164 143.975 39.125 142.277 39.125V40.125ZM147.152 42.375V42.5H148.152V42.375H147.152ZM147.652 43H148.152V42H147.652V43ZM148.652 42.5V36.125H147.652V42.5H148.652ZM148.152 35.625H147.652V36.625H148.152V35.625ZM147.152 36.125C147.152 36.2495 147.09 36.4443 146.886 36.6889C146.684 36.9293 146.37 37.1857 145.942 37.4213C145.087 37.8915 143.828 38.25 142.277 38.25V39.25C143.976 39.25 145.404 38.8585 146.424 38.2975C146.933 38.0174 147.354 37.6879 147.653 37.3306C147.948 36.9776 148.152 36.563 148.152 36.125H147.152ZM142.277 38.25H131.277V39.25H142.277V38.25ZM131.777 38.75V17.75H130.777V38.75H131.777ZM131.277 18.25H135.027V17.25H131.277V18.25ZM135.027 18.25C139.305 18.25 143.381 18.1262 146.638 18.5275C149.929 18.933 152.127 19.8486 152.944 21.7018L153.859 21.2982C152.802 18.9014 150.063 17.942 146.76 17.535C143.423 17.1238 139.249 17.25 135.027 17.25V18.25ZM153.402 22H154.027V21H153.402V22ZM154.516 21.3943L153.516 16.7693L152.538 16.9807L153.538 21.6057L154.516 21.3943ZM153.027 16.375H124.527V17.375H153.027V16.375ZM124.027 16.875V17.125H125.027V16.875H124.027ZM124.527 17.625C125.09 17.625 125.669 17.9878 126.134 18.8473C126.598 19.7054 126.902 20.9914 126.902 22.625H127.902C127.902 20.8836 127.581 19.4196 127.014 18.3715C126.447 17.3247 125.589 16.625 124.527 16.625V17.625ZM126.902 22.625V55.375H127.902V22.625H126.902ZM126.902 55.375C126.902 57.1856 126.54 58.4611 125.978 59.36L126.826 59.89C127.514 58.7889 127.902 57.3144 127.902 55.375H126.902ZM125.986 59.3476C125.523 60.0418 125.03 60.375 124.527 60.375V61.375C125.524 61.375 126.281 60.7082 126.818 59.9024L125.986 59.3476ZM124.027 60.875V61.125H125.027V60.875H124.027ZM155.313 61.125H154.813V61.625H155.313V61.125ZM186.188 61.125V61.625H186.6L186.679 61.2204L186.188 61.125ZM187.063 56.625L187.554 56.7204L187.67 56.125H187.063V56.625ZM186.563 56.625V56.125H186.281L186.135 56.3659L186.563 56.625ZM162.063 60.25H161.563V60.75H162.063V60.25ZM162.063 39.625V39.125H161.563V39.625H162.063ZM179.563 42.5H179.063V43H179.563V42.5ZM180.063 42.5V43H180.563V42.5H180.063ZM180.063 36.125H180.563V35.625H180.063V36.125ZM179.563 36.125V35.625H179.063V36.125H179.563ZM162.063 38.75H161.563V39.25H162.063V38.75ZM162.063 17.75V17.25H161.563V17.75H162.063ZM185.313 21.5L184.861 21.7129L184.996 22H185.313V21.5ZM185.938 21.5V22H186.558L186.427 21.3943L185.938 21.5ZM184.938 16.875L185.427 16.7693L185.341 16.375H184.938V16.875ZM155.313 16.875V16.375H154.813V16.875H155.313ZM155.313 17.125H154.813V17.625H155.313V17.125ZM155.313 60.875V60.375H154.813V60.875H155.313ZM155.313 61.625H186.188V60.625H155.313V61.625ZM186.679 61.2204L187.554 56.7204L186.572 56.5296L185.697 61.0296L186.679 61.2204ZM187.063 56.125H186.563V57.125H187.063V56.125ZM186.135 56.3659C185.015 58.2152 182.731 59.0999 179.427 59.4878C176.137 59.8739 172.028 59.75 167.438 59.75V60.75C171.973 60.75 176.177 60.8761 179.543 60.481C182.895 60.0876 185.611 59.1598 186.991 56.8841L186.135 56.3659ZM167.438 59.75H162.063V60.75H167.438V59.75ZM162.563 60.25V39.625H161.563V60.25H162.563ZM162.063 40.125H174.188V39.125H162.063V40.125ZM174.188 40.125C175.74 40.125 176.996 40.4836 177.848 40.9663C178.734 41.4687 179.063 42.0254 179.063 42.375H180.063C180.063 41.4746 179.329 40.6563 178.341 40.0962C177.317 39.5164 175.886 39.125 174.188 39.125V40.125ZM179.063 42.375V42.5H180.063V42.375H179.063ZM179.563 43H180.063V42H179.563V43ZM180.563 42.5V36.125H179.563V42.5H180.563ZM180.063 35.625H179.563V36.625H180.063V35.625ZM179.063 36.125C179.063 36.2495 179.001 36.4443 178.797 36.6889C178.596 36.9293 178.282 37.1857 177.853 37.4213C176.998 37.8915 175.739 38.25 174.188 38.25V39.25C175.887 39.25 177.315 38.8585 178.335 38.2975C178.844 38.0174 179.265 37.6879 179.564 37.3306C179.859 36.9776 180.063 36.563 180.063 36.125H179.063ZM174.188 38.25H162.063V39.25H174.188V38.25ZM162.563 38.75V17.75H161.563V38.75H162.563ZM162.063 18.25H166.813V17.25H162.063V18.25ZM166.813 18.25C171.154 18.25 175.229 18.1262 178.486 18.5275C181.772 18.9323 183.983 19.8471 184.861 21.7129L185.765 21.2871C184.643 18.9029 181.917 17.9427 178.609 17.535C175.272 17.1238 171.097 17.25 166.813 17.25V18.25ZM185.313 22H185.938V21H185.313V22ZM186.427 21.3943L185.427 16.7693L184.449 16.9807L185.449 21.6057L186.427 21.3943ZM184.938 16.375H155.313V17.375H184.938V16.375ZM154.813 16.875V17.125H155.813V16.875H154.813ZM155.313 17.625C155.799 17.625 156.35 17.9697 156.808 18.8417C157.26 19.7029 157.563 20.992 157.563 22.625H158.563C158.563 20.883 158.241 19.4221 157.693 18.3771C157.151 17.3428 156.327 16.625 155.313 16.625V17.625ZM157.563 22.625V55.375H158.563V22.625H157.563ZM157.563 55.375C157.563 57.0734 157.259 58.3599 156.809 59.2022C156.359 60.0473 155.81 60.375 155.313 60.375V61.375C156.316 61.375 157.142 60.7027 157.692 59.6728C158.242 58.6401 158.563 57.1766 158.563 55.375H157.563ZM154.813 60.875V61.125H155.813V60.875H154.813ZM217.806 2.25L217.635 1.7801L217.634 1.78067L217.806 2.25ZM203.681 15L204.128 15.2236L203.681 15ZM202.431 34.125L202.906 33.9696L202.905 33.9669L202.431 34.125ZM214.556 48.5L214.34 48.9511L214.784 49.163L215.003 48.7236L214.556 48.5ZM214.681 48.25L215.128 48.4736L215.356 48.0185L214.897 47.7989L214.681 48.25ZM202.681 34L203.158 33.8503L203.157 33.8476L202.681 34ZM203.931 15.125L203.48 14.9089L203.48 14.9093L203.931 15.125ZM217.931 2.625L218.095 3.09738L218.095 3.09725L217.931 2.625ZM229.181 66.875L229.171 67.3749L229.171 67.3749L229.181 66.875ZM223.306 66.75H222.806V67.2395L223.296 67.2499L223.306 66.75ZM226.056 16.5V17H226.556V16.5H226.056ZM226.056 16.25H226.556V15.75H226.056V16.25ZM216.556 16.25V15.75H216.056V16.25H216.556ZM216.556 16.5H216.056V17H216.556V16.5ZM218.306 17.75L218.73 17.485L218.726 17.4788L218.722 17.4726L218.306 17.75ZM218.431 65.75L217.997 65.5019L217.99 65.514L217.984 65.5264L218.431 65.75ZM216.556 67.25V66.75H216.056V67.25H216.556ZM216.556 67.5H216.056V68H216.556V67.5ZM228.931 68C241.282 68 250.167 62.6098 255.956 55.6799C261.73 48.7666 264.431 40.3107 264.431 34.125H263.431C263.431 40.0643 260.82 48.2959 255.188 55.0388C249.57 61.7652 240.956 67 228.931 67V68ZM264.431 34.125C264.431 24.121 260.724 15.6427 254.383 9.66737C248.045 3.69426 239.105 0.250004 228.681 0.250004V1.25C238.883 1.25 247.567 4.61825 253.698 10.3951C259.826 16.1698 263.431 24.379 263.431 34.125H264.431ZM228.681 0.250004C224.529 0.250004 220.463 0.751854 217.635 1.7801L217.977 2.7199C220.649 1.74814 224.584 1.25 228.681 1.25V0.250004ZM217.634 1.78067C211.386 4.07564 206.29 8.66524 203.234 14.7764L204.128 15.2236C207.073 9.33475 211.976 4.92436 217.979 2.71934L217.634 1.78067ZM203.234 14.7764C200.298 20.6476 199.791 27.7851 201.957 34.2831L202.905 33.9669C200.822 27.7149 201.314 20.8524 204.128 15.2236L203.234 14.7764ZM201.956 34.2804C204.118 40.8948 208.453 46.1355 214.34 48.9511L214.772 48.0489C209.159 45.3645 204.994 40.3552 202.906 33.9696L201.956 34.2804ZM215.003 48.7236L215.128 48.4736L214.234 48.0264L214.109 48.2764L215.003 48.7236ZM214.897 47.7989C209.283 45.1138 205.12 40.1046 203.158 33.8503L202.204 34.1497C204.242 40.6454 208.58 45.8862 214.465 48.7011L214.897 47.7989ZM203.157 33.8476C201.196 27.7188 201.687 20.9755 204.382 15.3407L203.48 14.9093C200.675 20.7745 200.166 27.7812 202.205 34.1524L203.157 33.8476ZM204.382 15.3411C207.199 9.46313 212.094 5.1793 218.095 3.09738L217.767 2.15262C211.518 4.32071 206.414 8.78687 203.48 14.9089L204.382 15.3411ZM218.095 3.09725C220.891 2.12481 224.7 1.75 228.681 1.75V0.749998C224.663 0.749998 220.721 1.12519 217.767 2.15275L218.095 3.09725ZM228.681 1.75C244.898 1.75 258.681 14.0195 258.681 33.875H259.681C259.681 13.4805 245.464 0.749998 228.681 0.749998V1.75ZM258.681 33.875C258.681 43.1495 255.806 51.3702 250.695 57.2178C245.591 63.0581 238.233 66.5596 229.191 66.3751L229.171 67.3749C238.504 67.5654 246.147 63.9419 251.448 57.8759C256.744 51.8173 259.681 43.3505 259.681 33.875H258.681ZM229.192 66.3751L223.317 66.2501L223.296 67.2499L229.171 67.3749L229.192 66.3751ZM223.806 66.75V20.75H222.806V66.75H223.806ZM223.806 20.75C223.806 19.9103 224.09 18.9364 224.547 18.1803C225.019 17.3985 225.575 17 226.056 17V16C225.037 16 224.219 16.789 223.691 17.6634C223.147 18.5636 222.806 19.7147 222.806 20.75H223.806ZM226.556 16.5V16.25H225.556V16.5H226.556ZM226.056 15.75H216.556V16.75H226.056V15.75ZM216.056 16.25V16.5H217.056V16.25H216.056ZM216.556 17C216.92 17 217.415 17.3143 217.89 18.0273L218.722 17.4726C218.198 16.6857 217.442 16 216.556 16V17ZM217.882 18.015C218.444 18.9139 218.806 20.1894 218.806 22H219.806C219.806 20.0606 219.418 18.5861 218.73 17.485L217.882 18.015ZM218.806 22V61.75H219.806V22H218.806ZM218.806 61.75C218.806 63.4357 218.444 64.72 217.997 65.5019L218.865 65.9981C219.418 65.03 219.806 63.5643 219.806 61.75H218.806ZM217.984 65.5264C217.522 66.45 217.031 66.75 216.556 66.75V67.75C217.581 67.75 218.34 67.05 218.878 65.9736L217.984 65.5264ZM216.056 67.25V67.5H217.056V67.25H216.056ZM216.556 68H228.931V67H216.556V68ZM267.286 61.125H266.786V61.625H267.286V61.125ZM298.161 61.125V61.625H298.573L298.651 61.2204L298.161 61.125ZM299.036 56.625L299.526 56.7204L299.642 56.125H299.036V56.625ZM298.536 56.625V56.125H298.254L298.108 56.3659L298.536 56.625ZM274.036 60.25H273.536V60.75H274.036V60.25ZM274.036 39.625V39.125H273.536V39.625H274.036ZM291.536 42.5H291.036V43H291.536V42.5ZM292.036 42.5V43H292.536V42.5H292.036ZM292.036 36.125H292.536V35.625H292.036V36.125ZM291.536 36.125V35.625H291.036V36.125H291.536ZM274.036 38.75H273.536V39.25H274.036V38.75ZM274.036 17.75V17.25H273.536V17.75H274.036ZM297.286 21.5L296.833 21.7129L296.968 22H297.286V21.5ZM297.911 21.5V22H298.53L298.399 21.3943L297.911 21.5ZM296.911 16.875L297.399 16.7693L297.314 16.375H296.911V16.875ZM267.286 16.875V16.375H266.786V16.875H267.286ZM267.286 17.125H266.786V17.625H267.286V17.125ZM267.286 60.875V60.375H266.786V60.875H267.286ZM267.286 61.625H298.161V60.625H267.286V61.625ZM298.651 61.2204L299.526 56.7204L298.545 56.5296L297.67 61.0296L298.651 61.2204ZM299.036 56.125H298.536V57.125H299.036V56.125ZM298.108 56.3659C296.987 58.2152 294.704 59.0999 291.399 59.4878C288.109 59.8739 284.001 59.75 279.411 59.75V60.75C283.945 60.75 288.149 60.8761 291.516 60.481C294.868 60.0876 297.584 59.1598 298.963 56.8841L298.108 56.3659ZM279.411 59.75H274.036V60.75H279.411V59.75ZM274.536 60.25V39.625H273.536V60.25H274.536ZM274.036 40.125H286.161V39.125H274.036V40.125ZM286.161 40.125C287.712 40.125 288.969 40.4836 289.82 40.9663C290.707 41.4687 291.036 42.0254 291.036 42.375H292.036C292.036 41.4746 291.302 40.6563 290.313 40.0962C289.29 39.5164 287.859 39.125 286.161 39.125V40.125ZM291.036 42.375V42.5H292.036V42.375H291.036ZM291.536 43H292.036V42H291.536V43ZM292.536 42.5V36.125H291.536V42.5H292.536ZM292.036 35.625H291.536V36.625H292.036V35.625ZM291.036 36.125C291.036 36.2495 290.974 36.4443 290.769 36.6889C290.568 36.9293 290.254 37.1857 289.826 37.4213C288.971 37.8915 287.712 38.25 286.161 38.25V39.25C287.859 39.25 289.288 38.8585 290.308 38.2975C290.817 38.0174 291.237 37.6879 291.536 37.3306C291.832 36.9776 292.036 36.563 292.036 36.125H291.036ZM286.161 38.25H274.036V39.25H286.161V38.25ZM274.536 38.75V17.75H273.536V38.75H274.536ZM274.036 18.25H278.786V17.25H274.036V18.25ZM278.786 18.25C283.126 18.25 287.202 18.1262 290.459 18.5275C293.744 18.9323 295.955 19.8471 296.833 21.7129L297.738 21.2871C296.616 18.9029 293.889 17.9427 290.581 17.535C287.244 17.1238 283.07 17.25 278.786 17.25V18.25ZM297.286 22H297.911V21H297.286V22ZM298.399 21.3943L297.399 16.7693L296.422 16.9807L297.422 21.6057L298.399 21.3943ZM296.911 16.375H267.286V17.375H296.911V16.375ZM266.786 16.875V17.125H267.786V16.875H266.786ZM267.286 17.625C267.771 17.625 268.323 17.9697 268.78 18.8417C269.232 19.7029 269.536 20.992 269.536 22.625H270.536C270.536 20.883 270.214 19.4221 269.666 18.3771C269.123 17.3428 268.3 16.625 267.286 16.625V17.625ZM269.536 22.625V55.375H270.536V22.625H269.536ZM269.536 55.375C269.536 57.0734 269.231 58.3599 268.782 59.2022C268.331 60.0473 267.783 60.375 267.286 60.375V61.375C268.288 61.375 269.115 60.7027 269.664 59.6728C270.215 58.6401 270.536 57.1766 270.536 55.375H269.536ZM266.786 60.875V61.125H267.786V60.875H266.786ZM302.769 61.125H302.269V61.625H302.769V61.125ZM333.644 61.125V61.625H334.056L334.135 61.2204L333.644 61.125ZM334.519 56.625L335.01 56.7204L335.126 56.125H334.519V56.625ZM334.019 56.625V56.125H333.737L333.591 56.3659L334.019 56.625ZM309.519 60.25H309.019V60.75H309.519V60.25ZM312.269 17.125V17.625H312.769V17.125H312.269ZM312.269 16.875H312.769V16.375H312.269V16.875ZM302.769 16.875V16.375H302.269V16.875H302.769ZM302.769 17.125H302.269V17.625H302.769V17.125ZM305.144 19.625L305.625 19.4876L305.622 19.4772L305.618 19.4669L305.144 19.625ZM304.644 59.625L305.06 59.9024L305.071 59.8866L305.08 59.8701L304.644 59.625ZM302.769 60.875V60.375H302.269V60.875H302.769ZM302.769 61.625H333.644V60.625H302.769V61.625ZM334.135 61.2204L335.01 56.7204L334.028 56.5296L333.153 61.0296L334.135 61.2204ZM334.519 56.125H334.019V57.125H334.519V56.125ZM333.591 56.3659C332.471 58.2152 330.187 59.0999 326.883 59.4878C323.593 59.8739 319.484 59.75 314.894 59.75V60.75C319.429 60.75 323.633 60.8761 326.999 60.481C330.351 60.0876 333.067 59.1598 334.447 56.8841L333.591 56.3659ZM314.894 59.75H309.519V60.75H314.894V59.75ZM310.019 60.25V21.5H309.019V60.25H310.019ZM310.019 21.5C310.019 20.5929 310.306 19.5868 310.762 18.8174C311.233 18.0216 311.79 17.625 312.269 17.625V16.625C311.248 16.625 310.43 17.4159 309.901 18.3076C309.357 19.2257 309.019 20.4071 309.019 21.5H310.019ZM312.769 17.125V16.875H311.769V17.125H312.769ZM312.269 16.375H302.769V17.375H312.269V16.375ZM302.269 16.875V17.125H303.269V16.875H302.269ZM302.769 17.625C303.188 17.625 303.559 17.8501 303.895 18.267C304.234 18.6865 304.492 19.2492 304.67 19.7831L305.618 19.4669C305.421 18.8758 305.117 18.1885 304.674 17.6392C304.229 17.0874 303.6 16.625 302.769 16.625V17.625ZM304.663 19.7624C304.897 20.5815 305.019 21.6582 305.019 22.625H306.019C306.019 21.5918 305.891 20.4185 305.625 19.4876L304.663 19.7624ZM305.019 22.625V52.75H306.019V22.625H305.019ZM305.019 52.75C305.019 53.911 305.081 55.0818 305.004 56.2484C304.929 57.4024 304.718 58.4733 304.208 59.3799L305.08 59.8701C305.695 58.7767 305.922 57.5351 306.002 56.3141C306.082 55.1057 306.019 53.839 306.019 52.75H305.019ZM304.228 59.3476C303.765 60.0418 303.272 60.375 302.769 60.375V61.375C303.766 61.375 304.523 60.7082 305.06 59.9024L304.228 59.3476ZM302.269 60.875V61.125H303.269V60.875H302.269ZM78.27 131.25H77.77V131.75H78.27V131.25ZM79.27 111.625L79.3769 111.137L79.373 111.136L79.27 111.625ZM59.645 110.875V110.375H59.145V110.875H59.645ZM59.645 111.125H59.145V111.625H59.645V111.125ZM61.645 112.5L62.0922 112.276L62.086 112.264L62.0791 112.252L61.645 112.5ZM62.52 135.25L62.6781 135.724L63.02 135.61V135.25H62.52ZM52.27 141.75L51.9164 141.396L51.9118 141.401L52.27 141.75ZM52.02 177.125L51.657 177.469L51.662 177.474L52.02 177.125ZM66.52 131H66.02V131.5H66.52V131ZM66.52 111.75V111.25H66.02V111.75H66.52ZM79.02 112.875L78.8207 113.334L78.8305 113.338L78.8405 113.342L79.02 112.875ZM78.645 129.625L78.8391 130.086L78.8503 130.081L78.8614 130.076L78.645 129.625ZM70.645 131V131.5H70.6582L70.6713 131.499L70.645 131ZM52.145 176.875L51.7817 177.219L51.787 177.224L52.145 176.875ZM52.52 142L52.8736 142.354L52.881 142.346L52.52 142ZM62.52 135.625H63.02V134.931L62.3619 135.151L62.52 135.625ZM61.52 153.625L61.936 153.902L61.9401 153.896L61.944 153.89L61.52 153.625ZM59.645 154.875V154.375H59.145V154.875H59.645ZM59.645 155.125H59.145V155.625H59.645V155.125ZM69.27 155.125V155.625H69.77V155.125H69.27ZM69.27 154.875H69.77V154.375H69.27V154.875ZM66.52 134.75L66.3988 134.265L66.02 134.36V134.75H66.52ZM69.645 134.5V135H70.145V134.5H69.645ZM69.645 134.25H70.145V133.75H69.645V134.25ZM66.52 134.375H66.02V134.941L66.582 134.871L66.52 134.375ZM66.52 132V131.5H66.02V132H66.52ZM71.145 185.25C84.992 185.25 100.27 174.202 100.27 156.625H99.27C99.27 173.548 84.548 184.25 71.145 184.25V185.25ZM100.27 156.625C100.27 140.008 89.5793 130.75 78.27 130.75V131.75C88.9608 131.75 99.27 140.492 99.27 156.625H100.27ZM78.77 131.25C78.77 131.454 78.6507 131.576 78.6178 131.608C78.5739 131.65 78.5329 131.673 78.5187 131.681C78.5001 131.691 78.4855 131.698 78.479 131.7C78.4715 131.703 78.4664 131.705 78.4648 131.706C78.463 131.706 78.4737 131.703 78.5083 131.694C78.5745 131.676 78.6708 131.653 78.8098 131.618C79.0803 131.551 79.471 131.45 79.9405 131.306C80.8776 131.018 82.1357 130.551 83.399 129.806C85.9336 128.311 88.52 125.67 88.52 121.125H87.52C87.52 125.205 85.2314 127.564 82.891 128.944C81.7168 129.637 80.5374 130.076 79.6464 130.35C79.2018 130.487 78.8309 130.582 78.5681 130.648C78.4406 130.679 78.3274 130.707 78.2507 130.727C78.2139 130.737 78.1699 130.749 78.1311 130.763C78.1149 130.769 78.0768 130.783 78.0355 130.805C78.0166 130.816 77.9721 130.842 77.9258 130.886C77.8906 130.92 77.77 131.044 77.77 131.25H78.77ZM88.52 121.125C88.52 118.035 87.264 115.748 85.481 114.13C83.7109 112.524 81.4352 111.587 79.3769 111.137L79.1632 112.113C81.1049 112.538 83.2041 113.414 84.809 114.87C86.4011 116.315 87.52 118.34 87.52 121.125H88.52ZM79.373 111.136C76.9391 110.623 70.8876 110.375 66.52 110.375V111.375C70.9024 111.375 76.851 111.627 79.167 112.114L79.373 111.136ZM66.52 110.375H59.645V111.375H66.52V110.375ZM59.145 110.875V111.125H60.145V110.875H59.145ZM59.645 111.625C60.2738 111.625 60.7609 111.961 61.2109 112.748L62.0791 112.252C61.5291 111.289 60.7662 110.625 59.645 110.625V111.625ZM61.1978 112.724C61.6606 113.649 62.02 114.947 62.02 116.625H63.02C63.02 114.803 62.6295 113.351 62.0922 112.276L61.1978 112.724ZM62.02 116.625V135.25H63.02V116.625H62.02ZM62.3619 134.776C58.53 136.053 54.9648 138.348 51.9165 141.396L52.6236 142.104C55.5752 139.152 59.0101 136.947 62.6781 135.724L62.3619 134.776ZM51.9118 141.401C47.1962 146.244 44.52 152.869 44.52 159.5H45.52C45.52 153.131 48.0938 146.756 52.6283 142.099L51.9118 141.401ZM44.52 159.5C44.52 166.253 47.0688 172.626 51.657 177.469L52.383 176.781C47.9712 172.124 45.52 165.997 45.52 159.5H44.52ZM51.662 177.474C56.6411 182.581 63.4002 185.25 71.145 185.25V184.25C63.6399 184.25 57.149 181.669 52.378 176.776L51.662 177.474ZM67.02 131V111.75H66.02V131H67.02ZM66.52 112.25C66.9009 112.25 69.2926 112.219 71.9498 112.343C73.2785 112.405 74.6655 112.506 75.8943 112.668C77.1356 112.831 78.1702 113.051 78.8207 113.334L79.2194 112.416C78.4324 112.074 77.2794 111.841 76.0246 111.676C74.7573 111.51 73.3397 111.407 71.9965 111.344C69.31 111.219 66.8891 111.25 66.52 111.25V112.25ZM78.8405 113.342C80.3854 113.936 81.5398 114.812 82.3153 116.047C83.0945 117.288 83.52 118.937 83.52 121.125H84.52C84.52 118.813 84.0705 116.962 83.1622 115.515C82.2502 114.063 80.9047 113.064 79.1995 112.408L78.8405 113.342ZM83.52 121.125C83.52 123.222 82.9823 124.871 82.092 126.17C81.1991 127.473 79.9314 128.453 78.4287 129.174L78.8614 130.076C80.4836 129.297 81.9034 128.214 82.9168 126.736C83.9327 125.254 84.52 123.403 84.52 121.125H83.52ZM78.451 129.164C76.1684 130.125 73.0045 130.375 70.6187 130.501L70.6713 131.499C73.0356 131.375 76.3717 131.125 78.8391 130.086L78.451 129.164ZM70.645 130.5H66.52V131.5H70.645V130.5ZM71.145 184C63.6424 184 57.2756 181.421 52.503 176.526L51.787 177.224C56.7645 182.329 63.3976 185 71.145 185V184ZM52.5083 176.531C48.2207 171.999 45.77 165.997 45.77 159.5H44.77C44.77 166.253 47.3193 172.501 51.7818 177.219L52.5083 176.531ZM45.77 159.5C45.77 153.256 48.3435 146.884 52.8736 142.354L52.1665 141.646C47.4465 146.366 44.77 152.994 44.77 159.5H45.77ZM52.881 142.346C55.7007 139.404 59.0064 137.323 62.6781 136.099L62.3619 135.151C58.5336 136.427 55.0893 138.596 52.159 141.654L52.881 142.346ZM62.02 135.625V149.375H63.02V135.625H62.02ZM62.02 149.375C62.02 151.186 61.6578 152.461 61.096 153.36L61.944 153.89C62.6322 152.789 63.02 151.314 63.02 149.375H62.02ZM61.104 153.348C60.6412 154.042 60.1479 154.375 59.645 154.375V155.375C60.6422 155.375 61.3988 154.708 61.936 153.902L61.104 153.348ZM59.145 154.875V155.125H60.145V154.875H59.145ZM59.645 155.625H69.27V154.625H59.645V155.625ZM69.77 155.125V154.875H68.77V155.125H69.77ZM69.27 154.375C68.7893 154.375 68.2326 153.977 67.7606 153.195C67.304 152.439 67.02 151.465 67.02 150.625H66.02C66.02 151.66 66.361 152.811 66.9045 153.712C67.4324 154.586 68.2507 155.375 69.27 155.375V154.375ZM67.02 150.625V134.75H66.02V150.625H67.02ZM66.6413 135.235C67.5714 135.003 68.5088 135 69.645 135V134C68.5312 134 67.4686 133.997 66.3988 134.265L66.6413 135.235ZM70.145 134.5V134.25H69.145V134.5H70.145ZM69.645 133.75C68.526 133.75 67.4943 133.749 66.458 133.879L66.582 134.871C67.5457 134.751 68.514 134.75 69.645 134.75V133.75ZM67.02 134.375V132H66.02V134.375H67.02ZM66.52 132.5H71.77V131.5H66.52V132.5ZM71.77 132.5C77.4337 132.5 83.3086 134.101 87.7588 137.881C92.1948 141.649 95.27 147.626 95.27 156.5H96.27C96.27 147.374 93.0952 141.101 88.4062 137.119C83.7314 133.149 77.6063 131.5 71.77 131.5V132.5ZM95.27 156.5C95.27 162.114 93.7869 169.008 90.0296 174.483C86.2883 179.934 80.2817 184 71.145 184V185C80.6334 185 86.9392 180.753 90.8541 175.049C94.7531 169.367 96.27 162.261 96.27 156.5H95.27ZM124.391 161.625C136.917 161.625 147.016 151.526 147.016 139H146.016C146.016 150.974 136.365 160.625 124.391 160.625V161.625ZM147.016 139C147.016 126.474 136.917 116.375 124.391 116.375V117.375C136.365 117.375 146.016 127.026 146.016 139H147.016ZM124.391 116.375C111.865 116.375 101.766 126.474 101.766 139H102.766C102.766 127.026 112.417 117.375 124.391 117.375V116.375ZM101.766 139C101.766 151.526 111.865 161.625 124.391 161.625V160.625C112.417 160.625 102.766 150.974 102.766 139H101.766ZM124.391 159.75C114.866 159.75 106.891 150.553 106.891 139H105.891C105.891 150.947 114.167 160.75 124.391 160.75V159.75ZM106.891 139C106.891 127.447 114.866 118.25 124.391 118.25V117.25C114.167 117.25 105.891 127.053 105.891 139H106.891ZM124.391 118.25C133.917 118.25 141.891 127.447 141.891 139H142.891C142.891 127.053 134.616 117.25 124.391 117.25V118.25ZM141.891 139C141.891 150.553 133.917 159.75 124.391 159.75V160.75C134.616 160.75 142.891 150.947 142.891 139H141.891ZM186.235 160.625L186.26 161.124L186.297 161.123L186.333 161.115L186.235 160.625ZM180.235 156.625L179.867 156.964L179.872 156.969L180.235 156.625ZM172.985 148.75L173.353 148.411L173.351 148.41L172.985 148.75ZM168.11 145.375V144.875L167.93 145.842L168.11 145.375ZM168.86 145.25V145.75H168.883L168.905 145.748L168.86 145.25ZM170.235 145.125L170.28 145.623L170.308 145.62L170.335 145.615L170.235 145.125ZM150.235 116.875V116.375H149.735V116.875H150.235ZM150.235 117.125H149.735V117.625H150.235V117.125ZM152.61 119.625L152.136 119.783L152.142 119.803L152.15 119.822L152.61 119.625ZM152.11 159.625L152.526 159.902L152.543 159.876L152.557 159.849L152.11 159.625ZM150.235 160.875V160.375H149.735V160.875H150.235ZM150.235 161.125H149.735V161.625H150.235V161.125ZM159.735 161.125V161.625H160.235V161.125H159.735ZM159.735 160.875H160.235V160.375H159.735V160.875ZM159.485 160.875L159.327 161.349L159.404 161.375H159.485V160.875ZM158.36 160.125L158.713 159.771L158.7 159.758L158.685 159.745L158.36 160.125ZM156.985 145.75V145.25H156.485V145.75H156.985ZM162.61 145.625L162.672 145.129L162.625 145.123L162.579 145.126L162.61 145.625ZM168.36 149.25L168.725 148.908L168.724 148.907L168.36 149.25ZM175.735 157.125L176.103 156.786L176.1 156.783L175.735 157.125ZM184.985 161L185.02 161.499L185.034 161.498L185.047 161.496L184.985 161ZM187.485 160.625L187.629 161.104L187.985 160.997V160.625H187.485ZM187.485 160.375H187.985V159.681L187.327 159.901L187.485 160.375ZM156.985 144.875H156.485V145.353L156.962 145.374L156.985 144.875ZM156.985 117.75V117.25H156.485V117.75H156.985ZM168.36 118.5L168.231 118.983L168.243 118.986L168.255 118.989L168.36 118.5ZM169.61 143.875L169.722 144.362L169.737 144.359L169.751 144.355L169.61 143.875ZM167.985 144.25L167.872 143.763L167.864 143.765L167.985 144.25ZM163.11 144.875L163.128 145.375L163.138 145.374L163.148 145.374L163.11 144.875ZM186.21 160.126C185.101 160.181 184.31 159.858 183.498 159.217C182.645 158.543 181.816 157.564 180.597 156.281L179.872 156.969C181.029 158.186 181.95 159.269 182.878 160.002C183.847 160.767 184.869 161.194 186.26 161.124L186.21 160.126ZM180.603 156.286L173.353 148.411L172.617 149.089L179.867 156.964L180.603 156.286ZM173.351 148.41C171.673 146.603 169.984 145.56 168.289 144.908L167.93 145.842C169.486 146.44 171.046 147.397 172.618 149.09L173.351 148.41ZM168.11 145.875C168.307 145.875 168.493 145.826 168.606 145.798C168.743 145.763 168.807 145.75 168.86 145.75V144.75C168.663 144.75 168.477 144.799 168.364 144.827C168.227 144.862 168.163 144.875 168.11 144.875V145.875ZM168.905 145.748L170.28 145.623L170.19 144.627L168.815 144.752L168.905 145.748ZM170.335 145.615C173.157 145.038 176.194 143.719 178.531 141.317C180.877 138.906 182.485 135.434 182.485 130.625H181.485C181.485 135.191 179.967 138.407 177.814 140.62C175.651 142.843 172.813 144.087 170.135 144.635L170.335 145.615ZM182.485 130.625C182.485 127.852 181.807 125.552 180.58 123.668C179.354 121.788 177.601 120.351 175.494 119.274C171.294 117.126 165.636 116.375 159.735 116.375V117.375C165.584 117.375 171.051 118.124 175.038 120.164C177.025 121.18 178.631 122.509 179.742 124.214C180.851 125.917 181.485 128.023 181.485 130.625H182.485ZM159.735 116.375H150.235V117.375H159.735V116.375ZM149.735 116.875V117.125H150.735V116.875H149.735ZM150.235 117.625C150.654 117.625 151.025 117.85 151.361 118.267C151.7 118.686 151.958 119.249 152.136 119.783L153.084 119.467C152.887 118.876 152.583 118.189 152.14 117.639C151.695 117.087 151.066 116.625 150.235 116.625V117.625ZM152.15 119.822C152.477 120.584 152.485 121.596 152.485 122.625H153.485C153.485 121.654 153.493 120.416 153.069 119.428L152.15 119.822ZM152.485 122.625V155.375H153.485V122.625H152.485ZM152.485 155.375C152.485 157.182 152.124 158.479 151.663 159.401L152.557 159.849C153.096 158.771 153.485 157.318 153.485 155.375H152.485ZM151.694 159.348C151.231 160.042 150.738 160.375 150.235 160.375V161.375C151.232 161.375 151.989 160.708 152.526 159.902L151.694 159.348ZM149.735 160.875V161.125H150.735V160.875H149.735ZM150.235 161.625H159.735V160.625H150.235V161.625ZM160.235 161.125V160.875H159.235V161.125H160.235ZM159.735 160.375H159.485V161.375H159.735V160.375ZM159.643 160.401C159.362 160.307 159.051 160.109 158.713 159.771L158.006 160.479C158.418 160.891 158.857 161.193 159.327 161.349L159.643 160.401ZM158.685 159.745C158.339 159.448 158.034 158.944 157.815 158.332C157.599 157.726 157.485 157.064 157.485 156.5H156.485C156.485 157.186 156.621 157.961 156.873 158.668C157.124 159.369 157.506 160.052 158.034 160.505L158.685 159.745ZM157.485 156.5V145.75H156.485V156.5H157.485ZM156.985 146.25C158.608 146.25 160.623 146.25 162.641 146.124L162.579 145.126C160.597 145.25 158.612 145.25 156.985 145.25V146.25ZM162.548 146.121C164.369 146.349 166.016 147.49 167.996 149.593L168.724 148.907C166.703 146.76 164.851 145.401 162.672 145.129L162.548 146.121ZM167.995 149.592L175.37 157.467L176.1 156.783L168.725 148.908L167.995 149.592ZM175.367 157.464C176.843 159.068 178.34 160.149 179.939 160.792C181.539 161.435 183.211 161.628 185.02 161.499L184.949 160.501C183.258 160.622 181.743 160.44 180.312 159.864C178.88 159.288 177.501 158.307 176.103 156.786L175.367 157.464ZM185.047 161.496C185.942 161.384 186.329 161.494 187.629 161.104L187.341 160.146C186.14 160.506 186.027 160.366 184.923 160.504L185.047 161.496ZM187.985 160.625V160.375H186.985V160.625H187.985ZM187.327 159.901C187.175 159.951 187.048 159.977 186.871 160.007C186.695 160.036 186.46 160.07 186.137 160.135L186.333 161.115C186.635 161.055 186.838 161.026 187.036 160.993C187.234 160.96 187.42 160.924 187.643 160.849L187.327 159.901ZM157.485 144.875V117.75H156.485V144.875H157.485ZM156.985 118.25H161.11V117.25H156.985V118.25ZM161.11 118.25C163.466 118.25 166.417 118.499 168.231 118.983L168.489 118.017C166.553 117.501 163.503 117.25 161.11 117.25V118.25ZM168.255 118.989C170.799 119.534 173.1 120.708 174.765 122.611C176.425 124.508 177.485 127.167 177.485 130.75H178.485C178.485 126.958 177.357 124.055 175.517 121.952C173.682 119.854 171.171 118.591 168.465 118.011L168.255 118.989ZM177.485 130.75C177.485 134.085 176.989 136.794 175.757 138.887C174.536 140.962 172.557 142.487 169.469 143.395L169.751 144.355C173.037 143.388 175.246 141.726 176.619 139.394C177.981 137.081 178.485 134.165 178.485 130.75H177.485ZM169.497 143.388L167.872 143.763L168.097 144.737L169.722 144.362L169.497 143.388ZM167.864 143.765C166.413 144.128 164.71 144.25 163.072 144.376L163.148 145.374C164.76 145.25 166.557 145.122 168.106 144.735L167.864 143.765ZM163.091 144.375C161.415 144.437 159.892 144.437 158.789 144.422C158.237 144.414 157.791 144.403 157.483 144.393C157.329 144.388 157.21 144.384 157.129 144.381C157.089 144.379 157.058 144.378 157.038 144.377C157.027 144.376 157.02 144.376 157.015 144.376C157.012 144.376 157.01 144.376 157.009 144.376C157.009 144.376 157.008 144.376 157.008 144.376C157.008 144.376 157.008 144.376 157.008 144.376C157.008 144.376 157.008 144.376 157.008 144.376C157.008 144.376 157.008 144.376 156.985 144.875C156.962 145.374 156.962 145.374 156.962 145.374C156.962 145.374 156.962 145.374 156.962 145.374C156.962 145.374 156.963 145.375 156.963 145.375C156.963 145.375 156.964 145.375 156.965 145.375C156.966 145.375 156.968 145.375 156.971 145.375C156.977 145.375 156.985 145.375 156.995 145.376C157.017 145.377 157.049 145.378 157.09 145.38C157.173 145.383 157.295 145.387 157.452 145.392C157.765 145.402 158.217 145.414 158.775 145.422C159.89 145.438 161.43 145.438 163.128 145.375L163.091 144.375ZM229.621 137.875L229.91 138.283L229.915 138.279L229.621 137.875ZM222.996 151L222.496 150.99V151H222.996ZM222.996 156.5L223.319 156.882L223.496 156.732V156.5H222.996ZM217.746 159.75L217.877 160.232L217.886 160.23L217.895 160.227L217.746 159.75ZM208.246 160.25L208.175 160.745L208.181 160.746L208.246 160.25ZM193.371 147.125L193.84 146.953L193.837 146.944L193.371 147.125ZM192.246 127.375L191.762 127.246L191.762 127.249L192.246 127.375ZM198.246 116L197.9 115.639L197.892 115.646L198.246 116ZM208.621 110.875L208.669 111.373L208.677 111.372L208.686 111.371L208.621 110.875ZM222.121 114.25L221.815 114.645L221.825 114.654L221.836 114.661L222.121 114.25ZM226.371 120.125L225.918 120.336L226.052 120.625H226.371V120.125ZM226.996 120.125V120.625H227.611L227.485 120.023L226.996 120.125ZM225.746 114.125L226.235 114.023L226.199 113.85L226.063 113.738L225.746 114.125ZM191.871 151.625L192.282 151.341L192.276 151.332L191.871 151.625ZM202.121 159.625L202.299 159.158L202.291 159.155L202.121 159.625ZM218.996 160.125L219.12 160.609L219.129 160.607L219.139 160.604L218.996 160.125ZM222.996 158.75L223.496 158.757L223.507 157.968L222.789 158.295L222.996 158.75ZM222.871 167.25L222.371 167.243V167.25H222.871ZM213.246 181.875V181.375H212.746V181.875H213.246ZM213.246 182.125H212.746V182.625H213.246V182.125ZM226.871 165.5L226.371 165.492V165.5H226.871ZM227.121 149.25L227.621 149.258V149.25H227.121ZM229.871 138.25L230.165 138.654L230.166 138.653L229.871 138.25ZM235.996 136V136.5H236.496V136H235.996ZM235.996 135.75H236.496V135.25H235.996V135.75ZM229.331 137.467C225.332 140.305 222.624 144.45 222.496 150.99L223.496 151.01C223.617 144.8 226.159 140.945 229.91 138.283L229.331 137.467ZM222.496 151V156.5H223.496V151H222.496ZM222.673 156.118C221.051 157.49 219.492 158.68 217.596 159.273L217.895 160.227C219.999 159.57 221.69 158.26 223.319 156.882L222.673 156.118ZM217.614 159.268C214.941 159.997 211.135 160.123 208.31 159.754L208.181 160.746C211.106 161.127 215.05 161.003 217.877 160.232L217.614 159.268ZM208.316 159.755C201.544 158.788 196.17 153.328 193.84 146.953L192.901 147.297C195.322 153.922 200.947 159.712 208.175 160.745L208.316 159.755ZM193.837 146.944C191.5 140.919 191.13 133.651 192.73 127.501L191.762 127.249C190.111 133.599 190.491 141.081 192.904 147.306L193.837 146.944ZM192.729 127.504C193.716 123.8 195.935 119.018 198.599 116.354L197.892 115.646C195.056 118.482 192.775 123.45 191.762 127.246L192.729 127.504ZM198.591 116.361C201.407 113.668 204.932 111.734 208.669 111.373L208.572 110.377C204.559 110.766 200.834 112.832 197.9 115.639L198.591 116.361ZM208.686 111.371C213.326 110.76 218.062 111.74 221.815 114.645L222.427 113.855C218.43 110.76 213.415 109.74 208.555 110.379L208.686 111.371ZM221.836 114.661C222.572 115.171 223.374 116.109 224.114 117.189C224.848 118.259 225.491 119.422 225.918 120.336L226.824 119.914C226.375 118.953 225.706 117.741 224.939 116.623C224.18 115.516 223.294 114.454 222.405 113.839L221.836 114.661ZM226.371 120.625H226.996V119.625H226.371V120.625ZM227.485 120.023L226.235 114.023L225.256 114.227L226.506 120.227L227.485 120.023ZM225.746 114.125C226.063 113.738 226.063 113.738 226.062 113.738C226.062 113.738 226.062 113.738 226.062 113.738C226.061 113.737 226.061 113.737 226.06 113.736C226.059 113.736 226.058 113.734 226.056 113.733C226.053 113.73 226.048 113.727 226.042 113.722C226.031 113.713 226.014 113.7 225.993 113.684C225.95 113.651 225.889 113.605 225.808 113.547C225.645 113.43 225.406 113.267 225.088 113.073C224.454 112.685 223.507 112.173 222.246 111.662C219.721 110.639 215.939 109.625 210.871 109.625V110.625C215.802 110.625 219.457 111.611 221.87 112.588C223.078 113.077 223.975 113.565 224.567 113.927C224.863 114.108 225.082 114.257 225.226 114.36C225.297 114.411 225.35 114.451 225.384 114.477C225.401 114.49 225.413 114.499 225.42 114.505C225.424 114.508 225.427 114.51 225.428 114.511C225.429 114.512 225.429 114.512 225.429 114.512C225.429 114.512 225.429 114.512 225.429 114.512C225.429 114.512 225.429 114.512 225.429 114.512C225.429 114.512 225.428 114.512 225.746 114.125ZM210.871 109.625C196.917 109.625 186.996 121.904 186.996 135.25H187.996C187.996 122.346 197.574 110.625 210.871 110.625V109.625ZM186.996 135.25C186.996 143.206 188.766 148.19 191.466 151.918L192.276 151.332C189.725 147.81 187.996 143.044 187.996 135.25H186.996ZM191.459 151.909C194.015 155.615 197.723 158.558 201.95 160.095L202.291 159.155C198.269 157.692 194.726 154.885 192.282 151.341L191.459 151.909ZM201.943 160.092C207.314 162.138 213.674 162.003 219.12 160.609L218.872 159.641C213.567 160.997 207.427 161.112 202.299 159.158L201.943 160.092ZM219.139 160.604C220.373 160.234 221.789 159.848 223.203 159.205L222.789 158.295C221.452 158.902 220.118 159.266 218.852 159.646L219.139 160.604ZM222.496 158.743L222.371 167.243L223.371 167.257L223.496 158.757L222.496 158.743ZM222.371 167.25C222.371 170.985 221.42 174.546 219.79 177.157C218.16 179.768 215.893 181.375 213.246 181.375V182.375C216.348 182.375 218.893 180.482 220.638 177.687C222.384 174.891 223.371 171.14 223.371 167.25H222.371ZM212.746 181.875V182.125H213.746V181.875H212.746ZM213.246 182.625C216.657 182.625 220.191 180.173 222.838 176.892C225.496 173.598 227.371 169.334 227.371 165.5H226.371C226.371 169.041 224.62 173.09 222.06 176.264C219.488 179.452 216.209 181.625 213.246 181.625V182.625ZM227.371 165.508L227.621 149.258L226.621 149.242L226.371 165.492L227.371 165.508ZM227.621 149.25C227.621 146.483 227.623 144.287 227.956 142.531C228.284 140.8 228.923 139.557 230.165 138.654L229.577 137.846C228.068 138.943 227.332 140.45 226.973 142.344C226.619 144.213 226.621 146.517 226.621 149.25H227.621ZM230.166 138.653C231.99 137.316 233.763 136.5 235.996 136.5V135.5C233.478 135.5 231.501 136.434 229.575 137.847L230.166 138.653ZM236.496 136V135.75H235.496V136H236.496ZM235.996 135.25C233.366 135.25 230.765 136.424 229.327 137.471L229.915 138.279C231.226 137.326 233.626 136.25 235.996 136.25V135.25ZM258.136 161.625C270.662 161.625 280.761 151.526 280.761 139H279.761C279.761 150.974 270.11 160.625 258.136 160.625V161.625ZM280.761 139C280.761 126.474 270.662 116.375 258.136 116.375V117.375C270.11 117.375 279.761 127.026 279.761 139H280.761ZM258.136 116.375C245.61 116.375 235.511 126.474 235.511 139H236.511C236.511 127.026 246.162 117.375 258.136 117.375V116.375ZM235.511 139C235.511 151.526 245.61 161.625 258.136 161.625V160.625C246.162 160.625 236.511 150.974 236.511 139H235.511ZM258.136 159.75C248.611 159.75 240.636 150.553 240.636 139H239.636C239.636 150.947 247.912 160.75 258.136 160.75V159.75ZM240.636 139C240.636 127.447 248.611 118.25 258.136 118.25V117.25C247.912 117.25 239.636 127.053 239.636 139H240.636ZM258.136 118.25C267.662 118.25 275.636 127.447 275.636 139H276.636C276.636 127.053 268.361 117.25 258.136 117.25V118.25ZM275.636 139C275.636 150.553 267.662 159.75 258.136 159.75V160.75C268.361 160.75 276.636 150.947 276.636 139H275.636Z" fill="white"/>
</svg>
